<mxfile host="app.diagrams.net" agent="Mozilla/5.0 (X11; Linux x86_64; rv:131.0) Gecko/20100101 Firefox/131.0" version="24.8.1">
  <diagram name="Page-1" id="5qk1M9Fl1hlWYoU_ZyAV">
    <mxGraphModel dx="733" dy="781" grid="1" gridSize="10" guides="1" tooltips="1" connect="1" arrows="1" fold="1" page="1" pageScale="1" pageWidth="850" pageHeight="1100" math="0" shadow="0">
      <root>
        <mxCell id="0" />
        <mxCell id="1" parent="0" />
        <mxCell id="CBEwIlwH5FtXZjfvDgn--34" value="" style="rounded=0;whiteSpace=wrap;html=1;fillColor=#fff2cc;strokeColor=#d6b656;" vertex="1" parent="1">
          <mxGeometry x="1150" y="290" width="170" height="140" as="geometry" />
        </mxCell>
        <mxCell id="CBEwIlwH5FtXZjfvDgn--33" value="" style="rounded=0;whiteSpace=wrap;html=1;fillColor=#fff2cc;strokeColor=#d6b656;" vertex="1" parent="1">
          <mxGeometry x="900" y="430" width="420" height="110" as="geometry" />
        </mxCell>
        <mxCell id="CBEwIlwH5FtXZjfvDgn--32" value="" style="rounded=0;whiteSpace=wrap;html=1;fillColor=#fff2cc;strokeColor=#d6b656;" vertex="1" parent="1">
          <mxGeometry x="590" y="280" width="500" height="120" as="geometry" />
        </mxCell>
        <mxCell id="CBEwIlwH5FtXZjfvDgn--31" value="" style="rounded=0;whiteSpace=wrap;html=1;fillColor=#fff2cc;strokeColor=#d6b656;" vertex="1" parent="1">
          <mxGeometry x="258" y="319.5" width="184" height="121" as="geometry" />
        </mxCell>
        <mxCell id="CBEwIlwH5FtXZjfvDgn--21" style="edgeStyle=orthogonalEdgeStyle;rounded=0;orthogonalLoop=1;jettySize=auto;html=1;exitX=1;exitY=0.5;exitDx=0;exitDy=0;entryX=0;entryY=0.5;entryDx=0;entryDy=0;strokeWidth=2;fillColor=#e1d5e7;strokeColor=#9673a6;endSize=3;startSize=3;endArrow=openThin;endFill=0;" edge="1" parent="1" source="CBEwIlwH5FtXZjfvDgn--1" target="CBEwIlwH5FtXZjfvDgn--2">
          <mxGeometry relative="1" as="geometry" />
        </mxCell>
        <mxCell id="CBEwIlwH5FtXZjfvDgn--1" value="&lt;div style=&quot;font-size: 10px;&quot;&gt;Start:&lt;/div&gt;&lt;div style=&quot;font-size: 10px;&quot;&gt;Initialzie Population of Songs &amp;amp; User Embedding&lt;br style=&quot;font-size: 10px;&quot;&gt;&lt;/div&gt;" style="rounded=1;whiteSpace=wrap;html=1;fillColor=#e1d5e7;strokeColor=#9673a6;strokeWidth=1;fontFamily=Verdana;fontSize=10;fontStyle=0" vertex="1" parent="1">
          <mxGeometry x="110" y="350" width="120" height="60" as="geometry" />
        </mxCell>
        <mxCell id="CBEwIlwH5FtXZjfvDgn--22" style="edgeStyle=orthogonalEdgeStyle;rounded=0;orthogonalLoop=1;jettySize=auto;html=1;exitX=1;exitY=0.5;exitDx=0;exitDy=0;entryX=0;entryY=0.5;entryDx=0;entryDy=0;strokeWidth=2;fillColor=#e1d5e7;strokeColor=#9673a6;endSize=3;startSize=3;endArrow=openThin;endFill=0;" edge="1" parent="1" source="CBEwIlwH5FtXZjfvDgn--2" target="CBEwIlwH5FtXZjfvDgn--4">
          <mxGeometry relative="1" as="geometry" />
        </mxCell>
        <mxCell id="CBEwIlwH5FtXZjfvDgn--2" value="Recomendation Model Scores Songs" style="rounded=1;whiteSpace=wrap;html=1;fillColor=#e1d5e7;strokeColor=#9673a6;strokeWidth=1;fontFamily=Verdana;fontSize=10;fontStyle=0" vertex="1" parent="1">
          <mxGeometry x="290" y="350" width="120" height="60" as="geometry" />
        </mxCell>
        <mxCell id="CBEwIlwH5FtXZjfvDgn--24" value="" style="edgeStyle=orthogonalEdgeStyle;rounded=0;orthogonalLoop=1;jettySize=auto;html=1;strokeWidth=2;fillColor=#e1d5e7;strokeColor=#9673a6;endSize=3;startSize=3;endArrow=openThin;endFill=0;" edge="1" parent="1" source="CBEwIlwH5FtXZjfvDgn--3" target="CBEwIlwH5FtXZjfvDgn--2">
          <mxGeometry relative="1" as="geometry" />
        </mxCell>
        <mxCell id="CBEwIlwH5FtXZjfvDgn--3" value="Present Evolved Songs to User" style="rounded=1;whiteSpace=wrap;html=1;fillColor=#e1d5e7;strokeColor=#9673a6;strokeWidth=1;fontFamily=Verdana;fontSize=10;fontStyle=0" vertex="1" parent="1">
          <mxGeometry x="290" y="240" width="120" height="60" as="geometry" />
        </mxCell>
        <mxCell id="CBEwIlwH5FtXZjfvDgn--19" style="edgeStyle=orthogonalEdgeStyle;rounded=0;orthogonalLoop=1;jettySize=auto;html=1;exitX=0.5;exitY=0;exitDx=0;exitDy=0;entryX=0;entryY=0.5;entryDx=0;entryDy=0;strokeWidth=2;fillColor=#e1d5e7;strokeColor=#9673a6;endSize=3;startSize=3;endArrow=openThin;endFill=0;" edge="1" parent="1" source="CBEwIlwH5FtXZjfvDgn--4" target="CBEwIlwH5FtXZjfvDgn--5">
          <mxGeometry relative="1" as="geometry" />
        </mxCell>
        <mxCell id="CBEwIlwH5FtXZjfvDgn--20" value="Approach 1" style="edgeStyle=orthogonalEdgeStyle;rounded=0;orthogonalLoop=1;jettySize=auto;html=1;exitX=0.5;exitY=1;exitDx=0;exitDy=0;entryX=0;entryY=0.5;entryDx=0;entryDy=0;strokeWidth=2;fillColor=#e1d5e7;strokeColor=#9673a6;endSize=3;startSize=3;endArrow=openThin;endFill=0;" edge="1" parent="1" source="CBEwIlwH5FtXZjfvDgn--4" target="CBEwIlwH5FtXZjfvDgn--10">
          <mxGeometry relative="1" as="geometry" />
        </mxCell>
        <mxCell id="CBEwIlwH5FtXZjfvDgn--4" value="&lt;div style=&quot;font-size: 10px;&quot;&gt;Score&lt;/div&gt;&lt;div style=&quot;font-size: 10px;&quot;&gt;Songs&lt;br style=&quot;font-size: 10px;&quot;&gt;&lt;/div&gt;" style="rhombus;whiteSpace=wrap;html=1;fillColor=#e1d5e7;strokeColor=#9673a6;strokeWidth=1;fontFamily=Verdana;fontSize=10;fontStyle=0" vertex="1" parent="1">
          <mxGeometry x="460" y="340" width="80" height="80" as="geometry" />
        </mxCell>
        <mxCell id="CBEwIlwH5FtXZjfvDgn--17" value="&lt;div&gt;Approach 3&lt;/div&gt;" style="edgeStyle=orthogonalEdgeStyle;rounded=0;orthogonalLoop=1;jettySize=auto;html=1;exitX=1;exitY=0.5;exitDx=0;exitDy=0;entryX=0;entryY=0.5;entryDx=0;entryDy=0;strokeWidth=2;fillColor=#e1d5e7;strokeColor=#9673a6;endSize=3;startSize=3;endArrow=openThin;endFill=0;" edge="1" parent="1" source="CBEwIlwH5FtXZjfvDgn--5" target="CBEwIlwH5FtXZjfvDgn--6">
          <mxGeometry relative="1" as="geometry" />
        </mxCell>
        <mxCell id="CBEwIlwH5FtXZjfvDgn--18" value="Approach 2" style="edgeStyle=orthogonalEdgeStyle;rounded=0;orthogonalLoop=1;jettySize=auto;html=1;exitX=1;exitY=0.5;exitDx=0;exitDy=0;entryX=0;entryY=0.5;entryDx=0;entryDy=0;strokeWidth=2;fillColor=#e1d5e7;strokeColor=#9673a6;endSize=3;startSize=3;endArrow=openThin;endFill=0;" edge="1" parent="1" source="CBEwIlwH5FtXZjfvDgn--5" target="CBEwIlwH5FtXZjfvDgn--8">
          <mxGeometry relative="1" as="geometry" />
        </mxCell>
        <mxCell id="CBEwIlwH5FtXZjfvDgn--5" value="Simulate User Behavior" style="rhombus;whiteSpace=wrap;html=1;fillColor=#e1d5e7;strokeColor=#9673a6;strokeWidth=1;fontFamily=Verdana;fontSize=10;fontStyle=0" vertex="1" parent="1">
          <mxGeometry x="610" y="280" width="80" height="80" as="geometry" />
        </mxCell>
        <mxCell id="CBEwIlwH5FtXZjfvDgn--15" style="edgeStyle=orthogonalEdgeStyle;rounded=0;orthogonalLoop=1;jettySize=auto;html=1;exitX=1;exitY=0.5;exitDx=0;exitDy=0;entryX=0;entryY=0.5;entryDx=0;entryDy=0;strokeWidth=2;fillColor=#e1d5e7;strokeColor=#9673a6;endSize=3;startSize=3;endArrow=openThin;endFill=0;" edge="1" parent="1" source="CBEwIlwH5FtXZjfvDgn--6" target="CBEwIlwH5FtXZjfvDgn--7">
          <mxGeometry relative="1" as="geometry" />
        </mxCell>
        <mxCell id="CBEwIlwH5FtXZjfvDgn--6" value="Use feedback to accumulate positive/negative samples" style="rounded=1;whiteSpace=wrap;html=1;fillColor=#e1d5e7;strokeColor=#9673a6;strokeWidth=1;fontFamily=Verdana;fontSize=10;fontStyle=0" vertex="1" parent="1">
          <mxGeometry x="750" y="210" width="120" height="60" as="geometry" />
        </mxCell>
        <mxCell id="CBEwIlwH5FtXZjfvDgn--13" style="edgeStyle=orthogonalEdgeStyle;rounded=0;orthogonalLoop=1;jettySize=auto;html=1;exitX=1;exitY=0.5;exitDx=0;exitDy=0;entryX=0;entryY=0.5;entryDx=0;entryDy=0;strokeWidth=2;fillColor=#e1d5e7;strokeColor=#9673a6;endSize=3;startSize=3;endArrow=openThin;endFill=0;" edge="1" parent="1" source="CBEwIlwH5FtXZjfvDgn--7" target="CBEwIlwH5FtXZjfvDgn--11">
          <mxGeometry relative="1" as="geometry" />
        </mxCell>
        <mxCell id="CBEwIlwH5FtXZjfvDgn--7" value="Score Songs based on the estimated user embedding" style="rounded=1;whiteSpace=wrap;html=1;fillColor=#e1d5e7;strokeColor=#9673a6;strokeWidth=1;fontFamily=Verdana;fontSize=10;fontStyle=0" vertex="1" parent="1">
          <mxGeometry x="940" y="210" width="120" height="60" as="geometry" />
        </mxCell>
        <mxCell id="CBEwIlwH5FtXZjfvDgn--16" style="edgeStyle=orthogonalEdgeStyle;rounded=0;orthogonalLoop=1;jettySize=auto;html=1;exitX=1;exitY=0.5;exitDx=0;exitDy=0;entryX=0;entryY=0.5;entryDx=0;entryDy=0;strokeWidth=2;fillColor=#e1d5e7;strokeColor=#9673a6;endSize=3;startSize=3;endArrow=openThin;endFill=0;" edge="1" parent="1" source="CBEwIlwH5FtXZjfvDgn--8" target="CBEwIlwH5FtXZjfvDgn--9">
          <mxGeometry relative="1" as="geometry" />
        </mxCell>
        <mxCell id="CBEwIlwH5FtXZjfvDgn--8" value="Train Shallow Models to Mimic User Behaviour" style="rounded=1;whiteSpace=wrap;html=1;fillColor=#e1d5e7;strokeColor=#9673a6;strokeWidth=1;fontFamily=Verdana;fontSize=10;fontStyle=0" vertex="1" parent="1">
          <mxGeometry x="750" y="330" width="120" height="60" as="geometry" />
        </mxCell>
        <mxCell id="CBEwIlwH5FtXZjfvDgn--12" style="edgeStyle=orthogonalEdgeStyle;rounded=0;orthogonalLoop=1;jettySize=auto;html=1;exitX=1;exitY=0.5;exitDx=0;exitDy=0;entryX=0;entryY=0.5;entryDx=0;entryDy=0;strokeWidth=2;fillColor=#e1d5e7;strokeColor=#9673a6;endArrow=openThin;endFill=0;" edge="1" parent="1" source="CBEwIlwH5FtXZjfvDgn--9" target="CBEwIlwH5FtXZjfvDgn--11">
          <mxGeometry relative="1" as="geometry" />
        </mxCell>
        <mxCell id="CBEwIlwH5FtXZjfvDgn--9" value="Confidence output for Scoring (could also be casted as regression problem)" style="rounded=1;whiteSpace=wrap;html=1;fillColor=#e1d5e7;strokeColor=#9673a6;strokeWidth=1;fontFamily=Verdana;fontSize=10;fontStyle=0" vertex="1" parent="1">
          <mxGeometry x="940" y="330" width="120" height="60" as="geometry" />
        </mxCell>
        <mxCell id="CBEwIlwH5FtXZjfvDgn--14" style="edgeStyle=orthogonalEdgeStyle;rounded=0;orthogonalLoop=1;jettySize=auto;html=1;exitX=1;exitY=0.5;exitDx=0;exitDy=0;entryX=0;entryY=0.5;entryDx=0;entryDy=0;strokeWidth=2;fillColor=#e1d5e7;strokeColor=#9673a6;endSize=3;startSize=3;endArrow=openThin;endFill=0;" edge="1" parent="1" source="CBEwIlwH5FtXZjfvDgn--10" target="CBEwIlwH5FtXZjfvDgn--11">
          <mxGeometry relative="1" as="geometry" />
        </mxCell>
        <mxCell id="CBEwIlwH5FtXZjfvDgn--10" value="Direct Scoring to Train EA" style="rounded=1;whiteSpace=wrap;html=1;fillColor=#e1d5e7;strokeColor=#9673a6;strokeWidth=1;fontFamily=Verdana;fontSize=10;fontStyle=0" vertex="1" parent="1">
          <mxGeometry x="940" y="450" width="120" height="60" as="geometry" />
        </mxCell>
        <mxCell id="CBEwIlwH5FtXZjfvDgn--23" style="edgeStyle=orthogonalEdgeStyle;rounded=0;orthogonalLoop=1;jettySize=auto;html=1;exitX=0.5;exitY=0;exitDx=0;exitDy=0;entryX=0.5;entryY=0;entryDx=0;entryDy=0;strokeWidth=2;fillColor=#e1d5e7;strokeColor=#9673a6;endSize=3;startSize=3;endArrow=openThin;endFill=0;" edge="1" parent="1" source="CBEwIlwH5FtXZjfvDgn--11" target="CBEwIlwH5FtXZjfvDgn--3">
          <mxGeometry relative="1" as="geometry">
            <Array as="points">
              <mxPoint x="1240" y="180" />
              <mxPoint x="350" y="180" />
            </Array>
          </mxGeometry>
        </mxCell>
        <mxCell id="CBEwIlwH5FtXZjfvDgn--11" value="EA Evolution of Song Recomendations" style="rounded=1;whiteSpace=wrap;html=1;fillColor=#e1d5e7;strokeColor=#9673a6;strokeWidth=1;fontFamily=Verdana;fontSize=10;fontStyle=0" vertex="1" parent="1">
          <mxGeometry x="1180" y="330" width="120" height="60" as="geometry" />
        </mxCell>
        <mxCell id="CBEwIlwH5FtXZjfvDgn--36" value="Lollo" style="text;html=1;align=center;verticalAlign=middle;whiteSpace=wrap;rounded=0;" vertex="1" parent="1">
          <mxGeometry x="258" y="319.5" width="60" height="30" as="geometry" />
        </mxCell>
        <mxCell id="CBEwIlwH5FtXZjfvDgn--37" value="&lt;h1 style=&quot;margin-top: 0px;&quot;&gt;Dataset&lt;/h1&gt;&lt;p&gt;Quelli mandati da Davide&lt;/p&gt;&lt;p&gt;&lt;br&gt;&lt;/p&gt;" style="text;html=1;whiteSpace=wrap;overflow=hidden;rounded=0;" vertex="1" parent="1">
          <mxGeometry x="260" y="450" width="180" height="120" as="geometry" />
        </mxCell>
        <mxCell id="CBEwIlwH5FtXZjfvDgn--38" value="Laurence" style="text;html=1;align=center;verticalAlign=middle;whiteSpace=wrap;rounded=0;" vertex="1" parent="1">
          <mxGeometry x="1170" y="440.5" width="60" height="30" as="geometry" />
        </mxCell>
        <mxCell id="CBEwIlwH5FtXZjfvDgn--39" value="Ettore" style="text;html=1;align=center;verticalAlign=middle;whiteSpace=wrap;rounded=0;" vertex="1" parent="1">
          <mxGeometry x="780" y="289.5" width="60" height="30" as="geometry" />
        </mxCell>
        <mxCell id="CBEwIlwH5FtXZjfvDgn--40" value="Davide" style="text;html=1;align=center;verticalAlign=middle;whiteSpace=wrap;rounded=0;" vertex="1" parent="1">
          <mxGeometry x="1163" y="425" width="60" height="30" as="geometry" />
        </mxCell>
      </root>
    </mxGraphModel>
  </diagram>
</mxfile>
